<?xml version="1.0" encoding="utf-8"?>
<!-- Generator: Adobe Illustrator 16.0.0, SVG Export Plug-In . SVG Version: 6.00 Build 0)  -->
<svg version="1.2" baseProfile="tiny-ps" xmlns="http://www.w3.org/2000/svg" xmlns:xlink="http://www.w3.org/1999/xlink"
	 width="2377.06px" height="2426.113px" viewBox="748.295 729.6 2377.06 2426.113">
<title>Robert de Veen</title>
<desc>Logo for robertdeveen.com.</desc>
<path d="M1927.365,980.532c68-16,152-4,224-4c44,0,88,0,128,12c260,92,220,468,144,672c-20,48-40,96-56,144c-24,56-44,108-68,164
	c-32,64-52,128-80,192c-12,20-36,60-32,84c0,28,76,44,96,52c88,44,180,104,252,168c64,56,116,132,188,176c32,20,68,32,104,44
	c16,4,36,4,52,16c20,16,0,40-20,44c-184,52-284-100-408-204c-76-64-184-152-284-180c-32-8-124,24-128-40c0-28,24-56,40-80
	c20-36,40-84,52-124c84-228,216-448,240-692c12-116,16-284-116-340c-44-16-96-16-144-16c-88,0-160,4-244,28c-312,76-600,236-748,532
	c-64,132-64,264-64,404c0,32,4,68,8,100c0,8,0,28-12,28s-20-20-24-28c-12-32-20-68-28-100c-28-136-12-300,48-424
	c72-144,160-268,284-368c64-52,140-84,212-120C1663.365,1056.532,1795.365,1008.532,1927.365,980.532 M1443.365,1704.532
	c104-32,136,124,164,192c96,244,180,492,272,736c8,20,16,40,24,60c28,60,120,180,4,216c-112,32-152-112-188-184
	c-36-84-60-176-92-260c-60-160-124-316-180-476C1423.365,1916.532,1323.365,1736.532,1443.365,1704.532"/>
</svg>
