<?xml version="1.0" standalone="no"?>
<!DOCTYPE svg PUBLIC "-//W3C//DTD SVG 20010904//EN"
 "http://www.w3.org/TR/2001/REC-SVG-20010904/DTD/svg10.dtd">
<svg version="1.0" xmlns="http://www.w3.org/2000/svg"
 width="249.000000pt" height="249.000000pt" viewBox="0 0 249.000000 249.000000"
 preserveAspectRatio="xMidYMid meet">
<metadata>
Created by potrace 1.14, written by Peter Selinger 2001-2017
</metadata>
<g transform="translate(0.000000,249.000000) scale(0.100000,-0.100000)"
fill="#000000" stroke="none">
<path d="M1295 2061 c3 -6 -12 -10 -32 -11 -87 -2 -111 -5 -106 -13 3 -5 -3
-8 -13 -6 -11 1 -36 -5 -56 -15 -21 -9 -45 -17 -55 -19 -10 -2 -44 -15 -77
-30 -32 -15 -62 -24 -67 -21 -5 3 -9 2 -8 -3 4 -22 -2 -25 -16 -7 -8 10 -15
15 -14 9 3 -22 -2 -33 -17 -39 -10 -4 -13 -2 -9 7 4 6 0 4 -8 -5 -8 -10 -17
-15 -20 -11 -4 3 -7 1 -7 -6 0 -8 -6 -11 -16 -7 -10 4 -13 2 -8 -6 5 -7 2 -9
-9 -5 -12 4 -14 2 -10 -11 3 -9 3 -14 -2 -10 -4 4 -32 -17 -61 -47 -48 -50
-75 -70 -59 -46 3 5 1 12 -4 16 -6 3 -8 -3 -6 -14 3 -17 -23 -64 -46 -81 -3
-3 -9 -15 -13 -28 -4 -13 -12 -19 -18 -16 -7 5 -9 1 -5 -9 4 -10 0 -20 -11
-26 -9 -5 -15 -11 -13 -13 8 -6 -23 -77 -31 -72 -4 3 -5 -3 -1 -12 5 -13 3
-15 -8 -9 -11 7 -12 6 -2 -6 10 -12 9 -21 -2 -42 -8 -16 -9 -25 -3 -21 7 4 8
3 4 -5 -11 -17 -13 -181 -2 -181 5 0 7 -3 3 -6 -3 -3 -2 -17 3 -30 5 -13 6
-24 1 -24 -9 0 19 -61 39 -86 18 -21 39 0 34 34 -10 63 -12 182 -3 182 6 0 8
-4 4 -9 -3 -5 -1 -12 4 -16 6 -3 8 3 6 15 -2 11 0 20 6 20 5 0 9 -5 9 -11 0
-5 6 -7 13 -3 6 5 -1 -7 -16 -25 -23 -28 -26 -36 -15 -49 10 -12 10 -14 1 -8
-8 4 -13 1 -13 -9 0 -10 5 -13 12 -9 7 5 8 3 3 -6 -5 -8 -3 -11 6 -8 8 3 13
12 11 21 -3 20 14 31 24 16 5 -8 3 -9 -5 -5 -8 5 -12 3 -10 -5 3 -28 -1 -39
-16 -39 -8 0 -15 -9 -15 -20 0 -11 6 -19 13 -17 7 1 11 -6 9 -18 -3 -16 -1
-18 9 -7 11 10 11 16 1 33 -11 17 -11 20 0 13 28 -18 43 -13 45 12 1 19 -2 23
-10 15 -6 -6 -16 -11 -21 -11 -6 0 -5 4 3 9 8 5 16 17 17 27 2 10 10 21 18 26
20 11 21 29 2 22 -7 -3 -16 2 -20 11 -4 11 2 19 19 25 32 12 32 19 0 16 -13
-2 -22 1 -19 6 3 5 12 7 19 4 7 -2 16 2 19 10 9 23 7 31 -4 14 -8 -13 -11 -13
-22 -1 -10 10 -10 12 -1 7 8 -4 17 3 25 18 6 14 16 26 21 26 6 0 6 -5 -1 -12
-5 -7 -8 -24 -7 -38 2 -14 4 -28 4 -32 2 -20 17 -5 17 17 0 14 -4 25 -8 25 -4
0 -8 5 -8 10 0 7 6 7 18 1 14 -7 19 -6 19 4 0 7 -7 11 -15 7 -10 -3 -13 -1 -8
6 3 6 2 14 -4 17 -8 5 -8 11 -1 19 6 7 7 17 3 21 -4 5 -1 4 7 0 11 -6 13 -4 8
8 -3 8 1 21 8 27 16 14 10 34 -7 24 -7 -5 -8 -2 -4 5 5 7 10 10 13 7 12 -12
42 15 37 32 -5 14 -4 14 4 2 7 -9 7 -19 2 -26 -6 -6 -6 -15 -2 -19 4 -5 -1 -5
-10 -2 -13 4 -16 1 -13 -14 3 -13 0 -17 -8 -13 -7 4 -9 3 -4 -1 4 -5 1 -18 -7
-30 -10 -15 -11 -26 -5 -36 8 -11 9 -10 7 6 -2 12 2 19 10 17 8 -1 11 2 7 8
-3 5 -3 15 1 21 4 7 11 1 19 -17 10 -24 9 -31 -4 -42 -15 -11 -15 -12 0 -7 11
4 20 -6 32 -36 9 -23 14 -46 11 -50 -3 -5 0 -9 6 -9 6 0 8 -4 5 -10 -3 -5 0
-10 7 -10 9 0 9 -3 -2 -10 -8 -5 -10 -10 -4 -10 11 0 41 -68 36 -84 -2 -5 2
-12 8 -16 6 -4 12 -17 13 -28 1 -12 5 -22 10 -22 5 0 7 -7 3 -15 -3 -8 -1 -15
5 -15 6 0 9 -6 6 -14 -3 -8 -2 -16 3 -18 4 -2 10 -12 12 -23 1 -11 7 -23 12
-26 5 -4 9 -19 9 -33 0 -15 2 -24 5 -21 8 8 33 -68 27 -83 -3 -7 -1 -11 4 -8
8 6 52 -105 54 -136 1 -10 5 -18 9 -18 4 0 8 -8 8 -18 0 -10 3 -22 8 -26 4 -4
7 -11 8 -14 3 -23 28 -66 50 -87 18 -17 24 -30 20 -42 -6 -14 -5 -16 5 -6 15
15 33 17 24 3 -6 -9 8 -14 27 -11 5 0 7 -5 5 -12 -1 -6 4 -11 11 -10 6 2 12
-1 12 -5 0 -4 -6 -14 -12 -21 -10 -11 -10 -13 0 -7 6 4 12 2 12 -3 0 -6 5 -11
11 -11 5 0 8 4 4 9 -3 5 -1 12 4 15 5 4 8 -5 7 -19 -2 -14 3 -30 10 -36 8 -6
14 -8 14 -4 0 4 8 1 18 -6 15 -13 16 -12 3 4 -15 19 -9 22 20 6 11 -5 17 -14
14 -19 -3 -5 -1 -11 4 -14 5 -4 8 0 7 6 -3 22 -24 53 -33 50 -4 -2 -9 2 -11
10 -3 10 -2 10 6 -1 7 -9 12 -10 16 -2 4 6 12 9 17 6 5 -4 9 -1 9 5 0 6 4 9 9
5 5 -3 12 -1 15 4 3 5 15 7 25 4 10 -3 22 0 25 5 4 6 -3 8 -16 4 -21 -5 -22
-4 -9 11 11 14 11 20 1 32 -7 9 -10 18 -6 22 3 4 13 -2 21 -13 12 -15 14 -15
9 -2 -3 9 -17 24 -30 33 -14 9 -23 19 -20 23 3 5 1 14 -3 21 -6 10 -10 9 -14
-4 -5 -11 -3 -14 6 -9 6 4 9 4 5 -1 -4 -4 -4 -13 2 -19 6 -8 3 -12 -9 -12 -14
0 -17 7 -14 38 3 23 0 38 -7 38 -6 0 -8 -5 -4 -12 4 -7 3 -8 -4 -4 -19 11 -2
34 21 30 21 -4 21 -4 2 4 -11 5 -26 7 -32 5 -7 -3 -13 0 -13 6 0 6 6 11 13 11
7 0 18 10 26 22 9 16 9 19 1 11 -14 -13 -43 -6 -34 8 3 5 11 6 17 3 7 -4 8 -3
4 2 -5 5 -14 9 -20 9 -5 0 -12 6 -15 14 -3 9 0 11 9 6 11 -6 12 -5 2 5 -10 11
-9 18 5 34 15 18 15 19 0 8 -10 -8 -19 -9 -22 -3 -4 5 -2 12 4 16 5 3 10 10
10 16 0 5 -8 1 -18 -9 -12 -11 -14 -20 -8 -24 15 -11 -6 -10 -22 1 -11 7 -10
9 3 15 9 3 13 10 10 16 -3 5 -1 10 5 10 7 0 6 5 -2 14 -9 9 -17 11 -25 5 -7
-7 -14 -6 -19 2 -4 8 -3 9 4 5 7 -4 12 -1 12 9 0 9 4 14 8 11 5 -3 9 1 9 9 0
13 -3 13 -23 0 -36 -23 -42 -18 -11 9 15 13 27 26 27 30 0 4 -12 -1 -27 -11
-16 -9 -25 -13 -20 -8 4 4 -1 17 -10 28 -11 12 -12 17 -4 12 11 -6 13 -2 9 18
-3 15 -2 24 3 22 4 -3 6 3 5 12 -2 9 -8 19 -14 21 -7 2 -12 8 -12 14 0 6 7 8
15 4 22 -8 18 2 -6 15 -12 6 -19 7 -15 1 3 -5 -2 -16 -12 -23 -15 -13 -16 -12
-3 4 7 9 10 17 6 17 -4 0 -2 6 4 13 6 8 8 17 4 20 -3 4 -1 7 7 7 9 0 10 3 1
13 -6 8 -7 18 -3 23 4 4 -2 2 -12 -6 -17 -14 -18 -13 -12 8 5 14 3 22 -4 22
-6 0 -8 -4 -5 -10 3 -5 2 -10 -3 -10 -5 0 -12 9 -15 21 -3 12 -10 19 -15 15
-5 -3 -9 1 -9 9 0 10 4 12 13 5 9 -8 11 -3 11 18 -1 16 -7 29 -14 29 -10 0
-10 -4 -1 -16 7 -9 8 -13 4 -9 -5 4 -16 2 -25 -5 -14 -10 -14 -10 -4 4 10 12
10 18 0 29 -9 10 -9 11 1 6 6 -4 12 -3 12 3 0 6 6 9 13 7 6 -1 9 -1 4 1 -4 3
-4 10 -1 16 5 8 2 8 -7 0 -19 -19 -34 -16 -18 3 12 15 11 16 -11 10 -17 -5
-21 -4 -11 2 11 8 11 11 0 16 -8 3 -5 5 7 2 12 -2 21 2 21 10 0 7 -4 11 -9 8
-15 -10 -46 6 -51 27 -3 12 -10 18 -16 14 -6 -3 -11 -1 -11 4 0 14 17 14 25 1
4 -6 11 -7 17 -4 7 5 9 1 5 -9 -8 -20 4 -29 23 -16 11 6 12 9 2 9 -7 0 -11 4
-8 9 6 9 -19 24 -51 30 -5 1 -1 6 7 12 12 8 11 9 -6 4 -31 -8 -53 3 -71 38
-19 37 -37 57 -53 57 -6 0 -8 5 -5 10 3 6 2 10 -4 10 -5 0 -12 -4 -16 -10 -3
-5 -12 -7 -20 -3 -9 3 -22 0 -30 -7 -12 -10 -18 -10 -31 1 -14 12 -14 14 2 26
10 7 13 13 7 13 -6 0 -10 8 -8 18 1 9 -3 23 -9 31 -8 11 -8 13 1 8 6 -4 13 -4
16 0 2 5 2 3 1 -4 -2 -6 6 -11 16 -10 14 1 16 4 8 14 -6 7 -7 13 -2 13 5 0 2
5 -6 10 -11 7 -11 10 -2 10 7 0 10 5 7 10 -3 6 -1 10 4 10 6 0 11 -5 11 -12 0
-6 3 -8 7 -5 3 4 11 3 17 -3 8 -6 12 -3 13 10 1 10 -4 18 -10 16 -7 -1 -9 -1
-4 1 4 3 4 10 0 16 -3 7 3 4 14 -6 11 -9 23 -14 27 -10 4 4 -3 16 -16 26 -22
18 -22 18 -1 8 30 -15 38 -14 24 3 -9 11 -9 16 0 22 7 4 9 3 5 -4 -3 -6 -2
-13 3 -16 5 -3 7 -16 5 -29 -2 -12 -1 -15 2 -7 4 8 11 23 16 34 6 11 6 16 1
13 -5 -4 -10 0 -10 8 0 10 5 11 19 4 11 -6 16 -15 11 -22 -4 -7 2 -5 13 3 30
22 30 24 9 17 l-20 -7 20 16 c20 16 20 16 -3 11 -12 -3 -20 -1 -16 4 3 6 13 9
22 7 10 -1 23 1 30 5 16 11 34 -1 25 -16 -4 -6 6 -2 21 11 16 12 33 19 38 16
10 -7 28 13 28 31 0 6 -5 3 -10 -5 -5 -8 -10 -10 -10 -5 0 6 4 16 9 23 6 11
10 10 16 -5 5 -10 7 -21 7 -25 -4 -16 8 -7 19 13 7 13 7 19 1 15 -6 -3 -14 -1
-18 6 -4 7 -3 10 1 5 5 -4 18 1 29 10 20 17 20 17 7 1 -12 -16 -11 -18 3 -18
14 0 20 11 18 31 -1 4 8 4 20 1 21 -5 21 -6 2 -13 -16 -6 -14 -8 9 -8 25 -1
28 2 22 22 -4 15 -3 18 3 8 8 -11 10 -11 14 0 3 9 6 8 11 -5 5 -12 3 -15 -6
-10 -6 4 -9 3 -4 -1 4 -5 18 -10 30 -12 12 -2 17 0 11 4 -6 5 -13 16 -17 25
-4 12 -2 15 8 11 8 -3 12 -9 9 -14 -3 -5 3 -6 12 -2 13 5 15 3 9 -8 -8 -12 -6
-12 8 0 9 7 17 19 17 27 0 7 5 16 10 19 6 4 10 3 9 -2 -3 -20 2 -27 11 -13 8
13 10 13 10 1 0 -11 4 -10 16 5 8 10 13 13 9 7 -3 -7 -1 -21 4 -30 9 -15 11
-14 12 12 1 17 3 23 5 15 3 -9 15 -22 27 -29 20 -13 21 -13 9 2 -10 12 -10 17
-1 23 8 4 9 3 5 -4 -4 -7 -4 -12 1 -13 4 0 17 -2 28 -4 10 -2 25 1 32 6 9 8
11 6 8 -10 -2 -11 0 -23 4 -26 13 -8 4 -145 -11 -163 -7 -9 -8 -13 -2 -9 7 4
5 -14 -5 -47 -8 -30 -20 -52 -25 -49 -5 4 -7 -1 -3 -9 3 -9 0 -21 -6 -28 -9
-10 -9 -11 1 -5 11 6 12 3 3 -14 -7 -11 -16 -21 -21 -21 -6 0 -10 -5 -10 -11
0 -5 5 -7 11 -3 7 4 6 -3 -2 -17 -7 -13 -14 -33 -16 -44 -2 -10 -8 -22 -14
-25 -5 -4 -11 -17 -12 -28 -1 -12 -4 -22 -8 -22 -4 0 -9 -10 -11 -22 -2 -13
-9 -22 -15 -21 -7 1 -9 -6 -5 -19 3 -14 1 -19 -6 -14 -6 3 -14 1 -18 -5 -4 -8
-3 -9 4 -5 7 4 12 1 12 -8 0 -9 -5 -16 -10 -16 -6 0 -10 -8 -8 -17 2 -10 -2
-17 -8 -16 -8 1 -10 -6 -6 -19 4 -16 2 -19 -8 -13 -8 5 -11 4 -6 -3 7 -11 -21
-78 -41 -100 -7 -7 -13 -23 -13 -35 1 -25 27 -64 36 -54 4 4 14 1 22 -6 10 -7
13 -8 9 -1 -9 16 40 15 53 -1 8 -10 4 -19 -17 -36 -15 -12 -21 -20 -13 -17 8
4 24 10 35 14 16 6 15 3 -5 -14 -14 -12 -20 -21 -13 -22 6 0 15 5 18 10 3 6
12 10 18 9 9 0 9 -2 0 -6 -7 -2 -13 -12 -13 -21 0 -12 3 -13 8 -5 5 9 11 6 21
-9 12 -19 11 -20 -6 -14 -14 6 -15 4 -6 -5 17 -17 37 -1 22 17 -10 12 -9 13 5
8 10 -4 22 0 30 11 11 15 13 15 13 2 0 -9 -6 -18 -14 -21 -7 -3 -13 -11 -13
-18 0 -9 3 -8 10 2 5 8 10 11 10 6 0 -5 7 -3 15 4 11 9 15 9 15 1 0 -7 5 -9
10 -6 6 3 13 -1 16 -9 3 -9 10 -13 15 -10 5 3 6 10 3 16 -4 7 -2 8 5 4 9 -6 9
-11 0 -22 -11 -13 -7 -27 9 -30 4 -1 18 -5 31 -10 23 -7 23 -8 6 -14 -18 -6
-17 -7 3 -12 12 -4 25 -1 29 4 3 7 1 8 -5 4 -8 -5 -10 -1 -5 9 5 13 7 14 14 3
12 -19 11 -36 -3 -41 -7 -2 -1 -2 14 0 15 3 35 0 45 -6 10 -6 13 -11 7 -11 -7
0 -15 -7 -18 -16 -5 -13 -3 -14 7 -6 15 13 43 -1 33 -16 -4 -6 3 -16 15 -22
15 -8 19 -8 15 -1 -5 7 -1 8 10 4 16 -6 16 -7 0 -18 -15 -12 -15 -13 1 -20 10
-5 23 -7 30 -6 7 1 10 -7 8 -19 -2 -11 1 -20 7 -20 5 0 8 7 4 15 -3 8 -1 15 4
15 6 0 10 -7 10 -15 0 -8 4 -15 10 -15 5 0 7 6 4 14 -3 8 -1 17 5 21 7 4 8 0
4 -11 -4 -12 -3 -15 6 -10 6 4 11 4 10 -1 -4 -22 3 -24 23 -7 16 13 19 14 10
2 -9 -12 -10 -18 -2 -23 6 -4 9 -12 7 -19 -3 -7 6 -12 23 -11 16 0 26 4 23 8
-3 5 -12 6 -21 2 -9 -3 -13 -3 -9 1 4 4 2 13 -3 19 -6 8 3 6 23 -4 22 -10 32
-21 29 -30 -3 -9 -1 -12 6 -7 19 11 14 32 -10 45 -18 9 -18 10 -3 5 34 -11 50
-9 47 4 -1 8 2 11 8 7 5 -3 10 -1 10 6 0 7 3 9 7 6 3 -4 0 -15 -8 -24 -8 -10
-20 -29 -28 -43 -13 -22 -12 -24 1 -13 8 7 18 9 23 5 4 -4 4 4 0 17 -5 18 -4
22 5 16 9 -6 11 -4 5 5 -6 10 -4 12 8 7 16 -6 16 -4 1 31 -9 20 -18 42 -21 49
-6 14 -33 26 -33 14 0 -5 6 -12 13 -14 7 -4 6 -6 -5 -6 -9 -1 -18 -4 -21 -8
-2 -5 -3 -3 -1 4 4 18 -8 24 -25 11 -15 -12 -15 -11 0 7 24 31 21 61 -7 74
-14 6 -30 9 -35 6 -5 -4 -9 -1 -9 5 0 6 -4 8 -10 5 -5 -3 -10 2 -10 12 0 15
-2 16 -10 3 -8 -13 -11 -13 -22 -1 -10 10 -10 12 0 7 6 -4 12 -2 12 4 0 6 -8
10 -18 8 -19 -3 -52 18 -52 33 0 5 7 6 15 3 8 -4 13 -10 10 -14 -3 -5 -1 -11
4 -14 5 -4 8 1 7 10 -1 8 -8 19 -15 24 -8 4 -10 14 -6 21 4 8 -2 4 -12 -9 -18
-22 -33 -21 -33 2 0 6 5 4 11 -4 9 -13 10 -13 6 0 -2 8 -12 14 -21 14 -9 -1
-16 2 -16 6 0 11 -36 50 -46 50 -5 0 -24 14 -41 31 -18 16 -33 27 -33 24 0 -3
-6 -1 -12 5 -46 38 -62 50 -69 50 -4 0 -7 9 -6 19 0 11 5 17 9 15 4 -3 8 0 8
6 0 6 6 8 13 4 6 -4 3 3 -8 16 l-20 23 25 -13 c14 -7 22 -9 18 -5 -13 14 11
45 30 39 14 -5 14 -4 2 4 -8 6 -18 8 -24 5 -5 -4 -6 -1 -1 6 4 7 17 10 29 7
20 -5 20 -5 2 9 -15 12 -22 12 -27 3 -5 -7 -11 -9 -16 -5 -10 10 18 28 34 22
7 -2 20 4 30 13 11 9 13 13 6 8 -8 -5 -17 -6 -20 -2 -4 4 -2 11 6 15 7 5 12
11 12 15 -2 17 0 17 17 5 15 -13 16 -12 4 3 -7 9 -9 18 -5 20 4 3 3 4 -2 3 -6
-2 -19 9 -29 24 l-20 26 22 -19 c20 -17 22 -18 22 -2 0 9 5 14 10 11 6 -4 8
-11 5 -16 -10 -15 1 -10 15 7 11 12 11 15 0 12 -7 -2 -15 3 -17 10 -3 8 1 10
14 5 13 -4 11 0 -7 16 -22 19 -23 21 -5 19 11 -2 23 -7 27 -13 5 -6 8 -5 8 2
0 7 -12 19 -27 28 -27 15 -28 15 -3 10 18 -4 28 0 38 15 14 23 5 27 -12 5 -8
-11 -15 -12 -26 -4 -13 9 -12 10 3 5 11 -3 17 0 17 9 0 8 5 15 10 15 7 0 7 7
-1 21 -8 15 -8 19 0 15 6 -4 11 -2 11 4 0 6 6 8 13 4 6 -4 1 5 -13 21 l-25 28
30 -19 c16 -10 26 -14 22 -8 -9 15 18 38 35 29 7 -4 5 0 -4 8 -20 16 -25 32
-6 21 7 -4 8 -3 4 5 -4 6 -12 9 -17 6 -5 -4 -9 -1 -9 5 0 6 -6 8 -12 4 -8 -4
-9 -3 -5 2 5 5 16 9 25 9 9 0 17 5 17 10 0 6 3 15 7 21 10 16 -3 26 -18 13 -8
-7 -14 -7 -19 1 -4 7 2 14 14 17 12 3 21 10 21 15 0 5 -10 6 -22 3 -18 -5 -20
-4 -8 4 11 8 11 11 2 11 -10 0 -10 3 0 14 7 7 19 11 25 9 7 -3 13 0 13 7 0 6
-4 8 -10 5 -5 -3 -10 -1 -10 5 0 6 -5 8 -12 4 -7 -4 -8 -3 -4 4 7 11 -6 17
-27 13 -5 -1 -6 3 -2 9 4 6 16 5 35 -5 25 -13 29 -13 24 -1 -3 8 -13 16 -22
18 -14 3 -14 5 2 21 12 12 14 17 4 17 -10 0 -9 3 2 10 12 8 10 9 -7 7 -12 -2
-26 -7 -30 -12 -5 -4 -3 -5 4 -1 14 8 28 -10 14 -18 -10 -7 -24 10 -27 32 -1
6 3 9 9 5 6 -4 8 0 4 10 -3 10 -2 17 2 17 5 0 12 -6 14 -12 4 -10 6 -10 6 0 1
8 -8 16 -20 19 -12 3 -18 11 -15 19 3 8 -3 18 -14 24 -12 6 -17 17 -14 28 3 9
-1 6 -9 -6 l-14 -24 -17 27 c-15 23 -16 29 -5 37 10 6 7 7 -8 3 -22 -6 -28 2
-24 28 1 5 -3 6 -8 3 -5 -4 -16 2 -23 11 -22 31 -95 72 -137 79 -24 4 -38 11
-34 17 4 6 1 7 -8 1 -18 -12 -58 -13 -87 -2 -14 5 -21 4 -17 -1z m-57 -135
c-16 -31 -21 -34 -14 -8 10 30 0 28 -19 -5 -15 -27 -16 -27 -10 -3 6 23 5 24
-8 7 -11 -13 -16 -15 -20 -5 -2 7 -8 10 -12 6 -4 -4 -3 -14 3 -21 9 -10 8 -14
-3 -14 -8 0 -12 4 -9 9 3 4 3 8 0 8 -2 0 -13 3 -23 7 -15 6 -16 5 -5 -9 15
-18 7 -25 -25 -22 -25 1 -29 -5 -13 -24 7 -9 7 -9 -2 -2 -15 12 -31 13 -24 2
3 -5 -1 -9 -9 -9 -8 0 -12 4 -10 8 3 3 -3 13 -12 20 -14 12 -15 11 -9 -9 5
-15 3 -22 -6 -23 -38 -3 -70 -18 -63 -29 3 -5 1 -12 -5 -15 -6 -4 -9 -1 -8 6
2 6 -3 14 -10 16 -7 3 -10 -1 -7 -10 3 -7 -2 -20 -11 -28 -12 -9 -15 -10 -10
-1 4 7 1 12 -9 12 -9 0 -13 -5 -10 -10 3 -6 -1 -13 -9 -16 -9 -3 -13 -11 -9
-17 7 -12 -14 -1 -39 21 -28 24 -21 5 10 -24 15 -15 20 -23 12 -18 -30 17 -44
12 -20 -7 l25 -20 -28 13 c-20 8 -27 17 -24 30 3 10 1 16 -4 12 -13 -8 -11
-25 5 -43 11 -12 12 -21 5 -31 -9 -13 -10 -12 -5 2 3 11 -2 22 -15 29 -17 9
-21 7 -26 -10 -3 -11 -9 -18 -14 -15 -5 3 -9 1 -9 -4 0 -6 7 -13 16 -16 8 -3
12 -11 9 -16 -5 -8 -12 -7 -23 2 -10 7 -14 8 -10 4 4 -5 0 -15 -10 -22 -15
-12 -15 -15 -2 -24 11 -7 11 -10 2 -10 -7 0 -10 -5 -7 -11 4 -6 -2 -5 -14 3
-12 7 -21 16 -21 20 0 5 -5 8 -11 8 -8 0 -8 -5 1 -15 18 -22 6 -44 -22 -39
-21 4 -21 4 -3 -5 14 -6 25 -4 36 5 13 12 16 12 16 0 0 -8 -5 -14 -11 -13 -6
1 -10 -5 -8 -14 1 -9 -5 -19 -13 -23 -9 -3 -13 -10 -10 -16 4 -6 -1 -7 -11 -3
-12 4 -15 3 -10 -5 4 -7 1 -15 -8 -18 -9 -3 -16 -13 -16 -21 0 -8 -5 -11 -10
-8 -6 4 -8 11 -5 16 4 5 2 9 -4 9 -5 0 -9 -9 -8 -19 0 -11 5 -17 9 -15 4 3 8
-2 8 -10 0 -10 -6 -13 -17 -9 -10 4 -14 2 -10 -4 4 -6 1 -14 -5 -17 -7 -3 -4
-4 7 -1 11 2 27 0 35 -5 13 -8 12 -10 -3 -10 -10 0 -16 -4 -12 -10 7 -11 -30
-50 -48 -50 -8 0 -7 4 3 10 11 7 12 10 2 10 -9 0 -11 7 -7 20 4 11 8 32 10 48
2 15 4 28 6 30 1 1 2 6 3 11 0 5 4 12 8 16 4 4 4 14 0 23 -4 14 -3 15 9 6 22
-18 45 -13 46 10 1 12 -1 15 -4 8 -3 -6 -10 -9 -15 -6 -7 4 -8 2 -4 -4 4 -7 3
-12 -2 -12 -15 0 -23 30 -9 30 7 0 21 8 32 16 19 16 19 16 -5 9 -23 -7 -24 -7
-10 11 8 10 20 22 25 26 6 4 6 8 2 8 -13 0 48 82 94 125 23 22 38 33 34 25 -4
-8 9 3 29 25 21 22 35 35 32 30 -2 -6 5 -17 17 -24 18 -11 20 -11 10 0 -7 7
-13 16 -13 21 0 12 53 36 68 31 7 -3 11 1 10 9 -2 7 4 14 12 14 8 1 20 3 25 4
6 1 13 2 18 1 4 0 7 5 7 12 0 7 8 3 17 -8 12 -15 14 -16 10 -3 -6 18 10 35 33
33 8 0 21 6 28 15 11 13 11 13 7 -1 -4 -10 0 -16 10 -16 9 0 14 6 11 14 -3 7
-2 12 2 11 4 -1 16 3 27 9 11 5 30 9 43 8 12 -1 22 3 22 8 0 5 7 7 15 4 8 -4
17 -3 19 2 3 4 12 8 20 8 12 0 13 -5 4 -21z m23 1 c-10 -9 -11 -8 -5 6 3 10 9
15 12 12 3 -3 0 -11 -7 -18z m64 13 c-3 -5 -12 -10 -18 -10 -7 0 -6 4 3 10 19
12 23 12 15 0z m9 -48 c3 -5 -1 -9 -9 -9 -8 0 -12 4 -9 9 3 4 7 8 9 8 2 0 6
-4 9 -8z m116 -16 c0 -3 -4 -8 -10 -11 -5 -3 -10 -1 -10 4 0 6 5 11 10 11 6 0
10 -2 10 -4z m248 -32 c4 2 8 -8 9 -22 l1 -27 -14 25 c-7 14 -13 30 -13 35 0
6 3 4 6 -3 2 -6 8 -10 11 -8z m-694 -33 c-8 -8 -43 -8 -38 0 2 4 13 7 24 6 10
-1 17 -3 14 -6z m66 -40 c7 -15 7 -19 -5 -17 -8 1 -18 6 -22 11 -5 4 -2 5 6 0
11 -6 13 -4 8 8 -9 23 0 21 13 -2z m-99 -18 c13 -16 12 -17 -3 -4 -10 7 -18
15 -18 17 0 8 8 3 21 -13z m-76 -3 c-3 -5 -12 -10 -18 -10 -7 0 -6 4 3 10 19
12 23 12 15 0z m140 1 c3 -5 2 -12 -3 -15 -5 -3 -9 1 -9 9 0 17 3 19 12 6z
m-262 -66 c-8 -22 -22 -18 -16 5 3 11 9 17 14 15 4 -3 6 -12 2 -20z m988 -108
c-6 -8 -7 -17 -3 -22 4 -4 -3 -3 -14 3 -12 6 -25 8 -29 4 -5 -4 -5 -2 -1 5 4
7 13 10 20 7 8 -3 17 -1 21 5 3 6 9 11 12 11 3 0 0 -6 -6 -13z m-119 -4 c-10
-4 -10 -8 -1 -20 10 -11 10 -13 -1 -11 -7 2 -15 -3 -18 -11 -3 -10 0 -12 14
-7 15 5 16 4 7 -5 -6 -6 -16 -8 -22 -5 -20 12 -1 67 22 65 8 0 8 -2 -1 -6z
m101 -67 c3 -8 -1 -20 -9 -26 -8 -7 -15 -10 -15 -6 -7 32 -4 46 11 46 4 0 10
-6 13 -14z m-986 -28 c9 -11 14 -48 7 -48 -1 0 -9 14 -18 30 -14 30 -7 41 11
18z m857 -6 c2 -4 -4 -8 -15 -8 -10 0 -19 4 -19 8 0 4 6 8 14 8 8 0 17 -4 20
-8z m-964 -6 c0 -3 -4 -8 -10 -11 -5 -3 -10 -1 -10 4 0 6 5 11 10 11 6 0 10
-2 10 -4z m-39 -33 c-12 -20 -14 -14 -5 12 4 9 9 14 11 11 3 -2 0 -13 -6 -23z
m1003 0 c6 -14 4 -14 -11 -2 -15 12 -16 12 -10 -4 4 -10 3 -16 -2 -12 -5 3
-12 1 -16 -5 -3 -5 0 -10 7 -10 8 -1 7 -5 -5 -14 -12 -10 -15 -16 -7 -21 8 -5
6 -13 -6 -26 -9 -10 -13 -19 -7 -19 5 0 10 -7 10 -16 0 -14 -2 -14 -14 2 -7
10 -13 16 -14 13 0 -2 -2 -12 -4 -21 -2 -10 2 -18 8 -18 7 0 4 -5 -6 -11 -14
-8 -16 -14 -6 -25 10 -12 9 -13 -7 -8 -18 7 -18 6 1 -17 l20 -24 -28 24 c-33
29 -36 17 -4 -18 12 -14 18 -23 13 -19 -12 10 -36 -10 -32 -25 1 -7 1 -9 -1
-4 -3 4 -9 4 -14 1 -6 -3 -5 -12 3 -22 12 -15 11 -16 -4 -3 -22 17 -24 -1 -3
-22 13 -13 13 -16 -1 -21 -8 -3 -12 -2 -9 4 3 6 2 10 -4 10 -17 0 -22 -18 -7
-27 11 -6 11 -10 2 -19 -19 -17 -41 20 -23 38 6 7 14 22 15 33 2 11 8 21 12
23 5 2 7 9 4 17 -3 7 0 16 5 20 6 3 8 11 5 17 -4 7 -2 8 4 4 8 -5 11 1 9 16
-1 15 3 22 12 20 8 -2 11 3 8 11 -3 8 0 20 6 26 6 6 7 11 2 11 -4 0 0 9 10 20
10 11 15 20 10 20 -4 0 -2 7 5 15 7 8 9 15 5 15 -4 0 -1 7 6 16 12 15 18 33
21 59 2 17 36 15 42 -2z m-944 1 c0 -8 -19 -13 -24 -6 -3 5 1 9 9 9 8 0 15 -2
15 -3z m1015 -24 c3 -5 1 -10 -4 -10 -6 0 -11 5 -11 10 0 6 2 10 4 10 3 0 8
-4 11 -10z m-1078 -65 c0 -8 -4 -12 -9 -9 -5 3 -6 10 -3 15 9 13 12 11 12 -6z
m1043 -55 c0 -5 -5 -10 -11 -10 -5 0 -7 5 -4 10 3 6 8 10 11 10 2 0 4 -4 4
-10z m-1040 -43 c0 -6 -6 -2 -14 9 -14 18 -15 18 -21 2 -4 -10 -12 -18 -18
-18 -5 0 -2 9 8 20 14 15 21 17 32 9 7 -6 13 -16 13 -22z m1014 -52 c-9 -13
-13 -29 -9 -34 3 -7 0 -8 -10 -5 -12 5 -13 10 -4 20 6 7 8 18 5 23 -4 5 -2 12
4 16 6 4 7 12 3 18 -4 7 0 7 10 -1 15 -13 15 -16 1 -37z m-54 -101 c0 -8 -4
-14 -8 -14 -4 0 -8 9 -8 19 0 11 4 17 8 15 4 -3 8 -12 8 -20z m-437 3 c4 3 7
1 7 -5 0 -6 -8 -10 -18 -9 -10 0 -19 7 -19 14 0 9 4 10 12 3 7 -5 15 -7 18 -3z
m297 -47 c0 -5 -4 -10 -10 -10 -5 0 -10 5 -10 10 0 6 5 10 10 10 6 0 10 -4 10
-10z m-260 -54 c0 -2 -7 -6 -15 -10 -8 -3 -15 -1 -15 4 0 6 7 10 15 10 8 0 15
-2 15 -4z m57 -179 c0 -8 -6 -14 -14 -14 -17 0 -17 14 0 20 6 3 12 6 13 6 0 1
1 -5 1 -12z m363 -27 c0 -5 8 -10 17 -10 9 0 14 -3 10 -6 -3 -4 -14 -3 -24 1
-10 5 -22 7 -26 6 -5 -1 -6 3 -2 9 8 13 25 13 25 0z m-335 -41 c-3 -12 -7 -24
-11 -28 -4 -3 -4 2 -1 12 4 10 1 17 -6 17 -8 0 -6 4 3 10 20 13 19 13 15 -11z
m10 -48 c-3 -6 3 -15 12 -21 17 -11 17 -11 0 -6 -10 3 -21 6 -23 6 -2 0 -4 7
-4 15 0 8 5 15 11 15 5 0 8 -4 4 -9z m529 -86 c-4 -8 -11 -12 -16 -9 -6 4 -5
10 3 15 19 12 19 11 13 -6z m36 -5 c0 -5 -2 -10 -4 -10 -3 0 -8 5 -11 10 -3 6
-1 10 4 10 6 0 11 -4 11 -10z m193 -5 c4 -8 1 -17 -5 -21 -7 -4 -8 -3 -4 4 4
8 0 12 -11 12 -15 0 -16 2 -3 10 19 12 17 13 23 -5z m-678 -75 c-3 -5 -12 -10
-18 -10 -7 0 -6 4 3 10 19 12 23 12 15 0z m11 -32 c4 -6 -1 -17 -11 -25 -25
-17 -39 -17 -23 1 7 8 16 12 21 9 4 -2 7 0 7 6 0 5 -6 12 -12 14 -10 4 -10 6
-1 6 6 1 15 -4 19 -11z m-109 -68 c2 -23 -13 -35 -23 -19 -5 8 -3 9 6 4 10 -6
12 -4 7 7 -3 9 -3 19 0 22 9 8 9 8 10 -14z"/>
<path d="M1036 1868 c3 -5 10 -6 15 -3 13 9 11 12 -6 12 -8 0 -12 -4 -9 -9z"/>
<path d="M945 1840 c-3 -5 -12 -7 -20 -3 -8 3 -15 3 -15 0 0 -13 30 -14 40 -1
7 8 10 14 7 14 -3 0 -8 -4 -12 -10z"/>
<path d="M880 1816 c0 -2 8 -10 18 -17 15 -13 16 -12 3 4 -13 16 -21 21 -21
13z"/>
<path d="M852 1801 c-11 -6 -10 -10 0 -19 11 -8 14 -7 14 9 0 10 0 19 -1 19 0
0 -6 -4 -13 -9z"/>
<path d="M725 1710 c-10 -11 -16 -22 -14 -24 2 -2 12 7 22 20 22 29 17 32 -8
4z"/>
<path d="M680 1665 c-7 -8 -9 -15 -4 -15 5 0 3 -4 -4 -9 -11 -6 -10 -10 4 -15
10 -4 15 -4 11 0 -4 4 1 13 11 20 12 9 14 16 6 24 -8 8 -14 7 -24 -5z m20 -5
c0 -5 -5 -10 -11 -10 -5 0 -7 5 -4 10 3 6 8 10 11 10 2 0 4 -4 4 -10z"/>
<path d="M635 1590 c3 -5 8 -10 11 -10 2 0 4 5 4 10 0 6 -5 10 -11 10 -5 0 -7
-4 -4 -10z"/>
<path d="M635 1529 c-11 -17 1 -21 15 -4 8 9 8 15 2 15 -6 0 -14 -5 -17 -11z"/>
<path d="M555 1374 c-11 -12 -13 -20 -6 -27 13 -13 20 -7 26 22 5 25 2 26 -20
5z"/>
<path d="M1723 1495 c0 -8 4 -12 9 -9 5 3 6 10 3 15 -9 13 -12 11 -12 -6z"/>
<path d="M1553 1363 c4 -3 1 -13 -6 -22 -11 -14 -10 -14 5 -2 16 12 16 31 1
31 -4 0 -3 -3 0 -7z"/>
<path d="M1480 1185 c-20 -24 -6 -28 15 -5 10 11 13 20 8 20 -6 0 -16 -7 -23
-15z"/>
<path d="M1068 2023 c7 -3 16 -2 19 1 4 3 -2 6 -13 5 -11 0 -14 -3 -6 -6z"/>
<path d="M1640 1906 c0 -2 7 -9 15 -16 9 -7 15 -8 15 -2 0 5 -7 12 -15 16 -8
3 -15 4 -15 2z"/>
<path d="M1325 1811 l-19 -26 22 19 c12 10 28 16 36 13 9 -4 18 -1 22 5 4 7 3
8 -4 4 -7 -4 -12 -3 -12 2 0 18 -26 8 -45 -17z"/>
<path d="M1420 1816 c0 -2 7 -7 16 -10 8 -3 12 -2 9 4 -6 10 -25 14 -25 6z"/>
<path d="M1470 1812 c0 -5 7 -9 15 -9 8 0 15 4 15 9 0 4 -7 8 -15 8 -8 0 -15
-4 -15 -8z"/>
<path d="M1275 1781 c-3 -5 -2 -12 3 -15 5 -3 9 1 9 9 0 17 -3 19 -12 6z"/>
<path d="M1150 1776 c0 -2 7 -7 16 -10 8 -3 12 -2 9 4 -6 10 -25 14 -25 6z"/>
<path d="M1390 1769 c0 -5 5 -7 10 -4 6 3 10 8 10 11 0 2 -4 4 -10 4 -5 0 -10
-5 -10 -11z"/>
<path d="M1106 1728 c3 -5 10 -6 15 -3 13 9 11 12 -6 12 -8 0 -12 -4 -9 -9z"/>
<path d="M1513 1725 c0 -8 4 -12 9 -9 5 3 6 10 3 15 -9 13 -12 11 -12 -6z"/>
<path d="M987 1723 c-10 -9 -9 -23 1 -23 5 0 9 7 9 15 0 17 -1 18 -10 8z"/>
<path d="M1055 1721 c-3 -5 -2 -12 3 -15 5 -3 9 1 9 9 0 17 -3 19 -12 6z"/>
<path d="M1030 1691 c0 -6 4 -13 10 -16 6 -3 7 1 4 9 -7 18 -14 21 -14 7z"/>
<path d="M1789 1627 c6 -8 7 -18 3 -22 -4 -5 -1 -5 6 -1 10 6 10 11 1 22 -6 8
-14 14 -16 14 -3 0 0 -6 6 -13z"/>
<path d="M811 1589 c5 -10 15 -21 22 -25 9 -5 9 -4 0 6 -6 7 -9 18 -7 25 3 6
-2 12 -10 12 -11 0 -13 -5 -5 -18z"/>
<path d="M1816 1588 c3 -5 10 -6 15 -3 13 9 11 12 -6 12 -8 0 -12 -4 -9 -9z"/>
<path d="M788 1543 c7 -3 16 -2 19 1 4 3 -2 6 -13 5 -11 0 -14 -3 -6 -6z"/>
<path d="M776 1488 c3 -5 10 -6 15 -3 13 9 11 12 -6 12 -8 0 -12 -4 -9 -9z"/>
<path d="M943 1407 c-3 -6 -1 -7 5 -3 5 3 12 1 14 -6 3 -8 6 -7 10 3 7 17 -19
22 -29 6z"/>
<path d="M1715 1410 c3 -5 8 -10 11 -10 2 0 4 5 4 10 0 6 -5 10 -11 10 -5 0
-7 -4 -4 -10z"/>
<path d="M1726 1348 c3 -5 10 -6 15 -3 13 9 11 12 -6 12 -8 0 -12 -4 -9 -9z"/>
<path d="M636 1291 c-14 -5 -16 -10 -8 -15 7 -4 12 -4 12 0 0 3 6 2 13 -4 10
-8 13 -6 14 9 2 21 -2 22 -31 10z"/>
<path d="M631 1226 c-9 -10 -8 -16 4 -26 17 -14 21 -35 5 -25 -5 3 -10 1 -10
-4 0 -15 15 -14 29 3 9 11 8 15 -4 20 -11 4 -14 13 -10 26 7 23 2 26 -14 6z"/>
<path d="M1690 1230 c0 -5 5 -10 11 -10 5 0 7 5 4 10 -3 6 -8 10 -11 10 -2 0
-4 -4 -4 -10z"/>
<path d="M700 1210 c-9 -6 -10 -10 -3 -10 6 0 15 5 18 10 8 12 4 12 -15 0z"/>
<path d="M1110 1189 c0 -5 5 -7 10 -4 6 3 10 8 10 11 0 2 -4 4 -10 4 -5 0 -10
-5 -10 -11z"/>
<path d="M1106 1162 c-3 -5 1 -9 9 -9 8 0 12 4 9 9 -3 4 -7 8 -9 8 -2 0 -6 -4
-9 -8z"/>
<path d="M656 1152 c-3 -6 -17 -9 -31 -7 -15 1 -25 -3 -25 -10 0 -21 -25 -36
-38 -23 -13 13 -12 -9 2 -30 4 -7 2 -20 -6 -30 -12 -16 -11 -16 6 -2 18 14 18
13 12 -10 -6 -19 -5 -21 3 -10 10 14 16 7 11 -15 -1 -5 9 -1 21 10 21 18 22
19 16 2 -4 -10 -7 -23 -7 -28 0 -4 -8 -6 -17 -3 -15 5 -15 4 -3 -4 17 -13 30
-6 30 16 0 15 2 15 10 2 13 -21 12 -6 -2 25 -8 18 -14 22 -20 13 -6 -10 -8
-10 -8 2 0 13 -1 13 -11 0 -8 -12 -9 -9 -4 10 5 19 4 22 -4 10 -7 -10 -11 -11
-11 -2 0 7 13 26 29 43 25 26 30 28 28 11 0 -10 -8 -19 -15 -18 -8 1 -17 -6
-20 -14 -5 -13 -3 -13 11 -1 10 7 17 10 17 6 0 -4 7 -2 15 5 8 7 12 17 9 22
-4 6 0 14 7 19 7 4 11 11 7 14 -3 4 -9 2 -12 -3z"/>
<path d="M1636 1128 c3 -5 10 -6 15 -3 13 9 11 12 -6 12 -8 0 -12 -4 -9 -9z"/>
<path d="M674 1113 c4 -7 2 -13 -3 -13 -6 0 -11 -4 -11 -8 0 -5 6 -9 14 -9 15
0 16 21 1 34 -4 4 -5 2 -1 -4z"/>
<path d="M1710 1106 c0 -2 8 -10 18 -17 15 -13 16 -12 3 4 -13 16 -21 21 -21
13z"/>
<path d="M616 1083 c-10 -10 -7 -25 3 -19 5 4 19 -6 31 -21 15 -20 18 -21 11
-6 -8 15 -8 22 0 25 6 2 0 9 -14 15 -14 7 -28 9 -31 6z"/>
<path d="M1165 1069 c-4 -6 -5 -12 -2 -15 2 -3 7 2 10 11 7 17 1 20 -8 4z"/>
<path d="M1590 1070 c0 -5 5 -10 11 -10 5 0 7 5 4 10 -3 6 -8 10 -11 10 -2 0
-4 -4 -4 -10z"/>
<path d="M1255 1051 c-3 -5 -2 -12 3 -15 5 -3 9 1 9 9 0 17 -3 19 -12 6z"/>
<path d="M1545 1011 c-9 -15 14 -24 29 -12 7 6 16 9 19 6 4 -3 5 -2 2 2 -9 11
-43 14 -50 4z"/>
<path d="M1190 989 c0 -5 5 -7 10 -4 6 3 10 8 10 11 0 2 -4 4 -10 4 -5 0 -10
-5 -10 -11z"/>
<path d="M1610 971 c0 -6 4 -13 10 -16 6 -3 7 1 4 9 -7 18 -14 21 -14 7z"/>
<path d="M1183 953 c4 -3 2 -12 -4 -19 -7 -8 -7 -14 1 -19 5 -3 10 1 10 10 0
10 5 13 13 9 8 -5 8 -2 -2 9 -7 9 -16 17 -19 17 -3 0 -2 -3 1 -7z"/>
<path d="M1354 925 c-4 -8 -11 -12 -17 -8 -6 3 -7 1 -3 -5 5 -8 13 -8 31 0 13
6 22 15 19 19 -8 14 -24 10 -30 -6z"/>
<path d="M1674 919 c-3 -6 -2 -15 3 -20 5 -5 9 -1 9 11 0 23 -2 24 -12 9z"/>
<path d="M1380 841 c0 -7 -5 -9 -12 -5 -7 5 -8 3 -3 -5 5 -9 10 -10 18 -2 6 6
8 14 4 18 -4 3 -7 1 -7 -6z"/>
<path d="M1497 801 c-4 -17 -3 -21 5 -13 5 5 8 16 6 23 -3 8 -7 3 -11 -10z"/>
<path d="M1550 750 c0 -5 7 -7 15 -4 8 4 15 8 15 10 0 2 -7 4 -15 4 -8 0 -15
-4 -15 -10z"/>
<path d="M1670 699 c0 -5 5 -7 10 -4 6 3 10 8 10 11 0 2 -4 4 -10 4 -5 0 -10
-5 -10 -11z"/>
<path d="M2047 603 c3 -7 6 -13 8 -13 2 0 5 6 8 13 3 8 -1 14 -8 14 -7 0 -11
-6 -8 -14z"/>
<path d="M1354 579 c-3 -6 -2 -15 3 -20 5 -5 9 -1 9 11 0 23 -2 24 -12 9z"/>
<path d="M1840 548 c-13 -8 -12 -9 2 -5 23 8 30 -3 15 -22 -11 -14 -10 -15 7
-1 11 8 21 14 23 13 1 -2 3 0 3 5 0 4 -3 7 -7 7 -5 0 -13 3 -18 7 -6 4 -17 2
-25 -4z"/>
<path d="M2050 511 c0 -6 4 -13 10 -16 6 -3 7 1 4 9 -7 18 -14 21 -14 7z"/>
<path d="M1947 489 c7 -7 15 -10 18 -7 3 3 -2 9 -12 12 -14 6 -15 5 -6 -5z"/>
<path d="M1146 475 c4 -8 11 -15 16 -15 6 0 5 6 -2 15 -7 8 -14 15 -16 15 -2
0 -1 -7 2 -15z"/>
<path d="M1396 443 c-6 -14 -5 -15 5 -6 7 7 10 15 7 18 -3 3 -9 -2 -12 -12z"/>
<path d="M1320 431 c-8 -6 -19 -7 -25 -3 -5 3 -4 -2 4 -11 7 -9 19 -17 25 -17
6 0 4 5 -4 10 -13 8 -13 10 2 10 9 0 20 5 23 10 8 12 -5 13 -25 1z"/>
<path d="M1346 412 c-3 -5 1 -9 9 -9 8 0 12 4 9 9 -3 4 -7 8 -9 8 -2 0 -6 -4
-9 -8z"/>
<path d="M1400 410 c-9 -6 -10 -10 -3 -10 6 0 15 5 18 10 8 12 4 12 -15 0z"/>
<path d="M1336 348 c3 -5 10 -6 15 -3 13 9 11 12 -6 12 -8 0 -12 -4 -9 -9z"/>
</g>
</svg>
